<svg width="462" height="456" viewBox="0 0 462 456" fill="none" xmlns="http://www.w3.org/2000/svg">
<path d="M438.3 188.65C453.467 188.65 461.05 197.1 461.05 214C461.05 226.133 457.15 238.7 449.35 251.7C441.983 264.267 432.233 274.667 420.1 282.9C407.967 291.133 395.183 295.25 381.75 295.25C370.917 295.25 356.183 291.35 337.55 283.55C328.45 338.583 308.083 381.05 276.45 410.95C244.817 440.85 206.467 455.8 161.4 455.8C129.767 455.8 101.6 448.867 76.9 435C52.6333 420.7 33.7833 401.85 20.35 378.45C6.91667 354.617 0.200002 329.05 0.200002 301.75C0.200002 290.483 1.5 279 4.1 267.3C8.86667 243.9 18.4 223.1 32.7 204.9C47.4333 186.267 65.2 171.75 86 161.35C107.233 150.95 129.767 145.75 153.6 145.75C174.833 145.75 193.033 149.433 208.2 156.8C229.433 132.1 240.05 111.3 240.05 94.4C240.05 86.1667 238.533 80.1 235.5 76.2C232.467 71.8667 227.7 67.75 221.2 63.85C214.7 59.95 209.933 56.05 206.9 52.15C203.867 48.25 202.35 42.1833 202.35 33.95C202.35 23.9833 205.167 15.9666 210.8 9.89998C216.867 3.83332 224.883 0.799985 234.85 0.799985C247.417 0.799985 256.95 5.78332 263.45 15.75C269.95 25.7167 273.2 38.7167 273.2 54.75C273.2 81.6166 264.967 107.617 248.5 132.75C232.467 157.883 212.533 181.067 188.7 202.3C164.867 223.1 132.367 249.533 91.2 281.6L63.9 303.05C68.6667 338.583 82.3167 366.75 104.85 387.55C127.817 407.917 154.683 418.1 185.45 418.1C207.55 418.1 228.35 412.467 247.85 401.2C267.35 389.933 283.817 373.683 297.25 352.45C310.683 330.783 319.567 305.65 323.9 277.05C322.167 276.183 316.533 273.15 307 267.95C288.367 258.417 274.067 251.7 264.1 247.8C254.133 243.467 244.383 241.3 234.85 241.3C227.483 241.3 222.067 242.6 218.6 245.2C215.133 247.367 213.4 250.617 213.4 254.95C213.4 260.15 216.217 266 221.85 272.5C227.483 279.867 230.3 285.933 230.3 290.7C230.3 295.9 228.35 300.667 224.45 305C220.983 308.9 215.567 310.85 208.2 310.85C201.7 310.85 196.067 308.9 191.3 305C186.967 300.667 184.8 294.167 184.8 285.5C184.8 272.933 189.133 260.367 197.8 247.8C206.9 235.233 218.383 225.05 232.25 217.25C246.117 209.017 260.2 204.9 274.5 204.9C285.767 204.9 297.25 207.283 308.95 212.05C320.65 216.383 335.6 223.1 353.8 232.2C368.533 239.567 380.667 245.2 390.2 249.1C399.733 253 408.4 254.95 416.2 254.95C421.833 254.95 426.383 253.867 429.85 251.7C433.75 249.533 435.7 246.5 435.7 242.6C435.7 239.567 432.883 235.233 427.25 229.6C422.917 225.267 419.667 221.8 417.5 219.2C415.767 216.167 414.9 212.267 414.9 207.5C414.9 201.867 416.85 197.317 420.75 193.85C425.083 190.383 430.933 188.65 438.3 188.65ZM64.55 246.5C62.3833 260.8 61.7333 274.233 62.6 286.8C70.4 280.3 74.5167 276.833 74.95 276.4C113.083 246.5 141.467 222.883 160.1 205.55C151.867 178.683 138 165.25 118.5 165.25C104.2 165.25 92.5 172.833 83.4 188C74.3 203.167 68.0167 222.667 64.55 246.5Z" fill="currentColor"/>
</svg>
